# xmcd CD database file
#
# Track frame offsets:
#	150
#	27001
#	47408
#	69324
#	92733
#	105817
#	119871
#	131993
#	149785
#	180169
#	195188
#	213508
#	226935
#
# Disc length: 3397 seconds
#
# Revision: 0
# Processed by: cddbd v1.5.1PL0 Copyright (c) Steve Scherf et al.
# Submitted via: CDex 1.51
#
DISCID=ae0d430d
DTITLE=Leeds University Union Dance Band - Taking It Up The Octave
DYEAR=2001
DGENRE=Jazz
TTITLE0=Luton Hoo
TTITLE1=Tailspin
TTITLE2=Fly To Me
TTITLE3=Early Morning Train
TTITLE4=Mack The Knife
TTITLE5=I Heard It Through The Grapevine
TTITLE6=It's Alright With Me
TTITLE7=Sir Duke
TTITLE8=Riffin' The Griffin
TTITLE9=My Baby Just Cares For Me
TTITLE10=Aardvark
TTITLE11=Bare Necessities
TTITLE12=Power To Spare
EXTD=YEAR: 2001
EXTT0=
EXTT1=
EXTT2=
EXTT3=
EXTT4=
EXTT5=
EXTT6=
EXTT7=
EXTT8=
EXTT9=
EXTT10=
EXTT11=
EXTT12=
PLAYORDER=
